<?xml version="1.0" standalone="no"?>
<!DOCTYPE svg PUBLIC "-//W3C//DTD SVG 20010904//EN"
 "http://www.w3.org/TR/2001/REC-SVG-20010904/DTD/svg10.dtd">
<svg version="1.0" xmlns="http://www.w3.org/2000/svg"
 width="1227.000000pt" height="764.000000pt" viewBox="0 0 1227.000000 764.000000"
 preserveAspectRatio="xMidYMid meet">

<g transform="translate(0.000000,764.000000) scale(0.100000,-0.100000)"
fill="#000000" stroke="none">
<path d="M11750 7451 c-107 -104 -192 -192 -188 -196 6 -7 65 -14 233 -30 81
-8 113 -11 156 -13 30 -2 27 -6 -119 -164 -83 -90 -184 -199 -226 -242 -42
-44 -76 -83 -76 -87 0 -4 30 -31 66 -60 36 -29 76 -61 88 -70 26 -22 139 -113
192 -154 21 -16 65 -52 97 -79 l59 -48 -23 -24 c-13 -14 -128 -131 -256 -262
-128 -130 -233 -240 -233 -244 0 -5 44 -8 98 -8 55 0 174 -3 266 -7 l167 -6
-128 -124 c-70 -68 -176 -170 -234 -226 l-107 -103 11 -246 11 -247 25 -6 c14
-3 60 -10 101 -15 41 -5 102 -14 135 -20 33 -6 78 -14 99 -18 l39 -7 -84 -75
c-331 -295 -406 -366 -398 -374 5 -5 154 -15 320 -22 74 -3 136 -8 139 -10 2
-3 -89 -96 -203 -207 -114 -111 -207 -205 -207 -209 0 -4 26 -7 58 -7 31 1
131 1 222 0 l165 -1 -245 -245 c-134 -134 -241 -247 -237 -251 4 -4 120 -9
259 -11 139 -2 253 -5 254 -6 4 -3 -99 -112 -293 -310 -96 -99 -172 -184 -170
-190 2 -7 44 -46 93 -87 121 -100 135 -112 280 -226 141 -111 140 -99 4 -124
-36 -7 -72 -13 -80 -15 -44 -10 -178 -37 -272 -56 -60 -12 -108 -24 -108 -26
0 -8 75 -74 161 -143 45 -36 112 -90 148 -120 36 -30 89 -73 116 -95 87 -69
95 -81 43 -71 -18 3 -84 9 -148 12 -63 3 -150 9 -192 13 -43 4 -78 5 -78 4 0
-2 21 -30 48 -62 26 -31 58 -72 72 -90 13 -18 33 -43 45 -56 11 -12 34 -40 50
-61 28 -35 69 -84 105 -125 8 -10 24 -30 35 -44 11 -15 35 -43 52 -63 18 -20
33 -42 33 -47 0 -6 -106 -116 -235 -245 -129 -129 -235 -237 -235 -241 0 -6
79 -13 280 -26 52 -3 123 -8 158 -12 l63 -6 -231 -230 c-258 -257 -239 -225
-220 -370 5 -38 10 -92 11 -120 1 -27 4 -60 6 -72 l5 -23 339 0 339 0 0 3820
0 3820 -163 0 -162 0 -195 -189z"/>
</g>
</svg>
